<svg height="800" width="800" xmlns="http://www.w3.org/2000/svg" viewBox="0 0 511.987 511.987" xml:space="preserve"><path style="fill:#434a54" d="M255.993 511.987c100.139 0 181.323-14.327 181.323-31.998l-10.67-277.329s-42.655-21.335-170.652-21.335c-128.004 0-170.667 21.335-170.667 21.335L74.662 479.989c0 17.671 81.186 31.998 181.331 31.998z"/><g style="opacity:.1"><path style="fill:#fff" d="M426.646 202.66s-42.655-21.335-170.652-21.335c-3.633 0-7.18.023-10.671.055 119.699 1.141 159.996 21.28 159.996 21.28l10.671 277.329c0 17.03-75.498 30.967-170.667 31.936 3.53.031 7.085.062 10.671.062 100.139 0 181.323-14.327 181.323-31.998L426.646 202.66z"/></g><path style="fill:#656d78" d="M511.987 191.996c0 41.233-114.621 74.662-255.993 74.662-141.387 0-255.993-33.429-255.993-74.662 0-41.241 114.606-74.67 255.993-74.67 141.372 0 255.993 33.429 255.993 74.67z"/><path style="fill:#434a54" d="M255.993 223.995c-46.271 0-90.021-4.133-123.199-11.624-37.546-8.477-46.921-18.133-47.46-20.375.539-2.25 9.914-11.905 47.46-20.382 33.179-7.492 76.928-11.617 123.199-11.617 46.265 0 90.014 4.125 123.185 11.617 37.562 8.477 46.937 18.132 47.468 20.382-.531 2.242-9.906 11.898-47.468 20.375-33.17 7.491-76.919 11.624-123.185 11.624z"/><path style="fill:#e6e9ed" d="M127.435 211.105c1.719.43 3.508.852 5.359 1.266 30.585 6.906 70.154 10.952 112.396 11.546C238.089 91.507 168.505.001 145.566.001c-3.414 0-5.797 2.023-6.781 6.25-15.976 68.514-29.89 127.278-13.397 196.722a316.15 316.15 0 0 0 2.047 8.132z"/><path style="fill:#ec87c0" d="M160.708 120.764c.133.391 12.336 36.741 20.616 99.403a611.476 611.476 0 0 0 21.766 1.953c-8.258-65.482-20.805-104.099-22.094-107.966-.047-.117-.07-.211-.094-.266l-.008.008c-1.43-4.202-5.398-7.233-10.085-7.233-5.891 0-10.672 4.772-10.672 10.663 0 1.203.211 2.359.578 3.438h-.007z"/><path style="fill:#e6e9ed" d="M379.178 212.371c1.859-.414 3.656-.836 5.375-1.266a392.75 392.75 0 0 0 2.031-8.133c16.5-69.443 2.594-128.208-13.391-196.722-.983-4.227-3.358-6.25-6.78-6.25-22.938 0-92.513 91.506-99.623 223.916 42.233-.593 81.81-4.639 112.388-11.545z"/><path style="fill:#ec87c0" d="M330.664 220.167c6.578-49.607 16.077-86.052 20.608-99.411.359-1.078.562-2.227.562-3.43 0-5.891-4.781-10.663-10.656-10.663-4.687 0-8.655 3.031-10.093 7.233v-.008a1.294 1.294 0 0 0-.094.266c-1.297 3.867-13.844 42.483-22.094 107.966a615.158 615.158 0 0 0 21.767-1.953z"/></svg>